<svg width="169" height="161" viewBox="0 0 169 161" fill="none" xmlns="http://www.w3.org/2000/svg">
<path d="M47.3931 142V130.8H54.3851V133.344H50.3211V135.824H53.9051V138.384H50.3211V142H47.3931ZM60.6235 142.176C57.6635 142.176 54.8955 140.288 54.8955 136.4C54.8955 132.528 57.7595 130.624 60.6715 130.624C63.5355 130.624 66.3835 132.528 66.3835 136.4C66.3835 139.824 64.0155 142.176 60.6235 142.176ZM60.6395 139.408C62.0315 139.408 63.4555 138.4 63.4555 136.4C63.4555 134.4 62.0635 133.408 60.6715 133.408C59.2155 133.408 57.8235 134.352 57.8235 136.4C57.8235 138.4 59.1995 139.408 60.6395 139.408ZM69.2348 142V133.36H66.4828V130.8H74.8028V133.36H72.0668V142H69.2348ZM80.6091 142.176C77.6491 142.176 74.8811 140.288 74.8811 136.4C74.8811 132.528 77.7451 130.624 80.6571 130.624C83.5211 130.624 86.3691 132.528 86.3691 136.4C86.3691 139.824 84.0011 142.176 80.6091 142.176ZM80.6251 139.408C82.0171 139.408 83.4411 138.4 83.4411 136.4C83.4411 134.4 82.0491 133.408 80.6571 133.408C79.2011 133.408 77.8091 134.352 77.8091 136.4C77.8091 138.4 79.1851 139.408 80.6251 139.408ZM90.7404 141.936V130.8H95.6844C97.7644 130.8 99.2204 132.112 99.2204 134.192C99.2204 134.88 98.8524 135.68 98.2924 136.128C99.2044 136.592 99.6844 137.504 99.6844 138.528C99.6844 140.448 98.4364 141.936 96.1324 141.936H90.7404ZM93.6684 135.168H95.4764C96.0524 135.168 96.3404 134.704 96.3404 134.256C96.3404 133.76 96.0524 133.296 95.4764 133.296H93.6684V135.168ZM93.6684 139.392H95.9244C96.4844 139.392 96.7404 138.976 96.7884 138.528C96.8204 138.016 96.4844 137.536 95.9084 137.536H93.6684V139.392ZM106.002 142.176C103.042 142.176 100.274 140.288 100.274 136.4C100.274 132.528 103.138 130.624 106.05 130.624C108.914 130.624 111.762 132.528 111.762 136.4C111.762 139.824 109.394 142.176 106.002 142.176ZM106.018 139.408C107.41 139.408 108.834 138.4 108.834 136.4C108.834 134.4 107.442 133.408 106.05 133.408C104.594 133.408 103.202 134.352 103.202 136.4C103.202 138.4 104.578 139.408 106.018 139.408ZM121.745 142.032L115.857 136.224V142H112.929V130.752H113.841L119.681 136.272V130.8H122.609V142.032H121.745Z" fill="white"/>
<mask id="mask0_96_5" style="mask-type:alpha" maskUnits="userSpaceOnUse" x="49" y="33" width="72" height="72">
<rect x="49" y="33" width="72" height="72" fill="#D9D9D9"/>
</mask>
<g mask="url(#mask0_96_5)">
<path d="M63.8268 94.5C62.6503 94.5 61.635 94.073 60.781 93.219C59.927 92.365 59.5 91.3498 59.5 90.1732V47.8268C59.5 46.6503 59.927 45.635 60.781 44.781C61.635 43.927 62.6503 43.5 63.8268 43.5H88.8078V46.9043H63.8268C63.5578 46.9043 63.3368 46.9907 63.1638 47.1637C62.9908 47.3367 62.9043 47.5578 62.9043 47.8268V90.1732C62.9043 90.4422 62.9908 90.6632 63.1638 90.8363C63.3368 91.0093 63.5578 91.0957 63.8268 91.0957H106.173C106.442 91.0957 106.663 91.0093 106.836 90.8363C107.009 90.6632 107.096 90.4422 107.096 90.1732V65.1922H110.5V90.1732C110.5 91.3498 110.073 92.365 109.219 93.219C108.365 94.073 107.35 94.5 106.173 94.5H63.8268ZM68.1543 82.956H101.846L91.7095 69.45L82.3285 81.5138L75.7405 73.194L68.1543 82.956ZM100.715 59.7113V53.331H94.2887V49.9268H100.715V43.5H104.119V49.9268H110.5V53.331H104.119V59.7113H100.715Z" fill="#27348B"/>
</g>
<rect x="1" y="1" width="167" height="159" rx="16" stroke="#FFD800" stroke-dasharray="2 2"/>
</svg>
