<svg width="169" height="161" viewBox="0 0 169 161" fill="none" xmlns="http://www.w3.org/2000/svg">
<path d="M36.2981 142V130.8H43.2901V133.344H39.2261V135.824H42.8101V138.384H39.2261V142H36.2981ZM49.5285 142.176C46.5685 142.176 43.8005 140.288 43.8005 136.4C43.8005 132.528 46.6645 130.624 49.5765 130.624C52.4405 130.624 55.2885 132.528 55.2885 136.4C55.2885 139.824 52.9205 142.176 49.5285 142.176ZM49.5445 139.408C50.9365 139.408 52.3605 138.4 52.3605 136.4C52.3605 134.4 50.9685 133.408 49.5765 133.408C48.1205 133.408 46.7285 134.352 46.7285 136.4C46.7285 138.4 48.1045 139.408 49.5445 139.408ZM58.1398 142V133.36H55.3877V130.8H63.7078V133.36H60.9718V142H58.1398ZM69.5141 142.176C66.5541 142.176 63.7861 140.288 63.7861 136.4C63.7861 132.528 66.6501 130.624 69.5621 130.624C72.4261 130.624 75.2741 132.528 75.2741 136.4C75.2741 139.824 72.9061 142.176 69.5141 142.176ZM69.5301 139.408C70.9221 139.408 72.3461 138.4 72.3461 136.4C72.3461 134.4 70.9541 133.408 69.5621 133.408C68.1061 133.408 66.7141 134.352 66.7141 136.4C66.7141 138.4 68.0901 139.408 69.5301 139.408ZM79.6294 142V130.8H82.5574V142H79.6294ZM89.4695 142.176C86.6055 142.176 83.7415 140.192 83.7415 136.416C83.7415 132.56 86.6055 130.624 89.4695 130.624C91.7735 130.624 94.3015 131.872 94.7335 134.864H91.9175C91.5175 133.712 90.6695 133.264 89.4695 133.264C87.7735 133.264 86.6695 134.544 86.6695 136.4C86.6695 138.016 87.7575 139.504 89.4695 139.504C90.6855 139.504 91.6455 138.944 91.9495 137.728H94.7655C94.3335 140.912 91.8535 142.176 89.4695 142.176ZM95.8338 142V130.8H102.826V133.344H98.7618V134.944H102.506V137.504H98.7618V139.328H102.97V142H95.8338ZM108.957 142V133.36H106.205V130.8H114.525V133.36H111.789V142H108.957ZM115.382 142V130.8H122.374V133.344H118.31V134.944H122.054V137.504H118.31V139.328H122.518V142H115.382ZM122.507 142V141.6L127.643 130.688H128.987L134.075 141.6V142H131.051L130.395 140.608H126.203L125.563 142H122.507ZM127.147 138.16H129.467L128.299 135.456L127.147 138.16Z" fill="white"/>
<rect x="1" y="1" width="167" height="159" rx="16" stroke="#FFD800" stroke-dasharray="2 2"/>
<mask id="mask0_96_4" style="mask-type:alpha" maskUnits="userSpaceOnUse" x="49" y="33" width="72" height="72">
<rect x="49" y="33" width="72" height="72" fill="#D9D9D9"/>
</mask>
<g mask="url(#mask0_96_4)">
<path d="M63.8268 94.5C62.6503 94.5 61.635 94.073 60.781 93.219C59.927 92.365 59.5 91.3498 59.5 90.1732V47.8268C59.5 46.6503 59.927 45.635 60.781 44.781C61.635 43.927 62.6503 43.5 63.8268 43.5H88.8078V46.9043H63.8268C63.5578 46.9043 63.3368 46.9907 63.1638 47.1637C62.9908 47.3367 62.9043 47.5578 62.9043 47.8268V90.1732C62.9043 90.4422 62.9908 90.6632 63.1638 90.8363C63.3368 91.0093 63.5578 91.0957 63.8268 91.0957H106.173C106.442 91.0957 106.663 91.0093 106.836 90.8363C107.009 90.6632 107.096 90.4422 107.096 90.1732V65.1922H110.5V90.1732C110.5 91.3498 110.073 92.365 109.219 93.219C108.365 94.073 107.35 94.5 106.173 94.5H63.8268ZM68.1543 82.956H101.846L91.7095 69.45L82.3285 81.5138L75.7405 73.194L68.1543 82.956ZM100.715 59.7113V53.331H94.2887V49.9268H100.715V43.5H104.119V49.9268H110.5V53.331H104.119V59.7113H100.715Z" fill="#27348B"/>
</g>
</svg>
